<svg width="78" height="77" viewBox="0 0 78 77" fill="none" xmlns="http://www.w3.org/2000/svg">
<g clip-path="url(#clip0_71_82915)">
<path d="M36.4149 21.2302C36.4149 21.2302 34.6649 22.8802 34.6449 27.7102V32.7102H28.2949V39.9002H34.6349V58.3502H41.9549V39.9002H48.2449L49.1149 32.7602H41.9549V27.7602C41.9447 27.3453 42.0224 26.933 42.183 26.5502C42.3436 26.1675 42.5834 25.8231 42.8866 25.5398C43.1898 25.2564 43.5496 25.0404 43.9423 24.906C44.335 24.7717 44.7517 24.722 45.1649 24.7602H49.4349V17.9902H43.0249C41.7533 18.0143 40.5024 18.3169 39.3604 18.8767C38.2183 19.4365 37.2129 20.2398 36.4149 21.2302Z" fill="#3B276B"/>
<path d="M65.3953 61.8498C64.3953 62.1598 63.7653 63.3298 63.2753 64.2298C62.7853 65.1298 61.9553 66.0098 61.9453 66.9698C61.9472 67.0455 61.9663 67.1197 62.0011 67.1869C62.0359 67.2542 62.0855 67.3126 62.1462 67.3578C62.2068 67.4031 62.277 67.434 62.3513 67.4482C62.4256 67.4624 62.5022 67.4595 62.5753 67.4398C63.4953 67.1798 64.1953 66.0998 64.8653 65.4398C65.5353 64.7798 66.5953 63.8398 66.6153 62.7498C66.6045 62.6063 66.5629 62.4668 66.4933 62.3408C66.4236 62.2149 66.3276 62.1054 66.2118 62.02C66.0959 61.9345 65.963 61.8751 65.8221 61.8457C65.6812 61.8164 65.5356 61.8178 65.3953 61.8498Z" fill="#3B276B"/>
<path d="M76.6151 40.8399C81.1551 22.4999 62.2051 3.94992 44.9551 0.689922C35.4904 -1.18532 25.6671 0.66684 17.5351 5.85992C10.5951 10.3799 3.53507 18.4199 2.62507 26.9099C2.60496 27.0761 2.64777 27.2437 2.74507 27.3799C-2.72493 41.3799 3.23507 59.0599 15.2251 67.9599C27.2151 76.8599 46.6651 79.8799 59.3151 70.6599C59.5498 70.5273 59.7222 70.3069 59.7944 70.0472C59.8666 69.7874 59.8327 69.5096 59.7001 69.2749C59.5675 69.0402 59.347 68.8678 59.0873 68.7956C58.8276 68.7234 58.5498 68.7573 58.3151 68.8899C57.8551 69.1099 57.4051 69.3199 56.9451 69.5199C56.8138 69.3043 56.6057 69.1462 56.3627 69.0776C56.1198 69.009 55.8598 69.0348 55.6351 69.1499C47.2251 73.1499 35.5351 71.1499 27.2051 68.1499C27.0017 68.099 26.7869 68.1223 26.5992 68.2157C26.4115 68.3091 26.2634 68.4664 26.1814 68.6593C26.0994 68.8523 26.0889 69.0681 26.152 69.2681C26.215 69.468 26.3473 69.6389 26.5251 69.7499C30.963 71.9072 35.7877 73.1551 40.7151 73.4199C42.7766 73.525 44.8432 73.4648 46.8951 73.2399C43.6776 74.0839 40.3389 74.368 37.0251 74.0799C30.0856 73.3741 23.4435 70.8984 17.7351 66.8899C10.8651 62.3099 6.17507 56.7099 3.95507 48.7099C1.95774 41.8168 1.99246 34.4938 4.05507 27.6199C4.15423 27.5574 4.23662 27.4716 4.29507 27.3699L5.38507 25.2899C3.27724 30.764 2.66292 36.7002 3.60507 42.4899C5.39507 53.3699 11.5351 60.5699 20.6051 66.4899C21.6951 67.1999 22.7751 65.3699 21.6051 64.7599C13.6051 60.5199 7.22507 50.8399 5.87507 42.0099C4.40507 32.2399 7.95507 23.0999 13.7351 15.3099C14.2351 14.6399 13.1851 13.9199 12.6151 14.4499C11.6709 15.3419 10.7888 16.2975 9.97507 17.3099C11.3049 15.2758 12.8468 13.3885 14.5751 11.6799C14.1651 12.3699 14.8251 13.4099 15.6451 12.8799C17.7551 11.5199 19.7951 10.0899 21.9851 8.87992C23.5451 8.00992 25.2051 7.29992 26.8051 6.49992C27.1023 6.58576 27.4178 6.58576 27.7151 6.49992C39.3351 3.54992 50.9051 4.81992 59.9551 13.3099C60.0238 13.3773 60.1067 13.4286 60.1976 13.46C60.2886 13.4915 60.3854 13.5023 60.4811 13.4918C60.5768 13.4813 60.669 13.4496 60.7509 13.3992C60.8329 13.3487 60.9026 13.2806 60.9551 13.1999C60.9249 13.3134 60.923 13.4326 60.9494 13.547C60.9759 13.6614 61.0299 13.7677 61.1068 13.8564C61.1837 13.9452 61.2812 14.0137 61.3907 14.0562C61.5002 14.0986 61.6184 14.1136 61.7351 14.0999C61.9203 14.0786 62.0913 13.9898 62.2154 13.8506C62.3395 13.7114 62.408 13.5314 62.408 13.3449C62.408 13.1584 62.3395 12.9784 62.2154 12.8392C62.0913 12.7 61.9203 12.6113 61.7351 12.5899C61.6195 12.5865 61.5048 12.6121 61.4018 12.6646C61.2987 12.717 61.2104 12.7945 61.1451 12.8899C61.1571 12.7952 61.1471 12.6991 61.1159 12.6089C61.0847 12.5187 61.0331 12.4369 60.9651 12.3699C57.8324 9.11167 54.0965 6.49315 49.9651 4.65992C62.1451 9.09992 72.3151 20.0999 73.7851 32.7399C72.8623 28.6219 71.1471 24.7228 68.7351 21.2599C68.621 21.0623 68.4332 20.9181 68.2128 20.8591C67.9925 20.8 67.7577 20.8309 67.5601 20.9449C67.3625 21.059 67.2183 21.2468 67.1592 21.4672C67.1001 21.6875 67.131 21.9223 67.2451 22.1199C70.443 28.1023 72.1771 34.7576 72.3051 41.5399C72.5351 48.6699 69.7651 54.7399 65.9851 60.6199C65.5951 61.2099 66.4851 61.9399 66.9851 61.4499C67.1056 61.5175 67.2447 61.5443 67.3817 61.5263C67.5187 61.5083 67.6462 61.4464 67.7451 61.3499C73.2051 56.2499 77.2051 48.5999 76.6651 40.9599C76.6351 40.9099 76.6151 40.8799 76.6151 40.8399Z" fill="#3B276B"/>
<path d="M23.4751 67.3902C23.4267 67.518 23.4049 67.6543 23.4112 67.7908C23.4175 67.9272 23.4517 68.061 23.5116 68.1837C23.5716 68.3065 23.6561 68.4156 23.7599 68.5045C23.8637 68.5933 23.9846 68.6599 24.1151 68.7002C24.5097 68.853 24.9183 68.9669 25.3351 69.0402C26.0751 69.1302 26.3351 68.1202 25.9051 67.6602C25.599 67.3787 25.2638 67.1307 24.9051 66.9202C24.7824 66.8476 24.6457 66.8021 24.504 66.7866C24.3622 66.7712 24.2189 66.7863 24.0835 66.8308C23.948 66.8753 23.8237 66.9482 23.7188 67.0447C23.6139 67.1412 23.5308 67.259 23.4751 67.3902Z" fill="#3B276B"/>
</g>
<defs>
<clipPath id="clip0_71_82915">
<rect width="76.59" height="76.25" fill="white" transform="translate(0.705078)"/>
</clipPath>
</defs>
</svg>
