<svg width="77" height="77" viewBox="0 0 77 77" fill="none" xmlns="http://www.w3.org/2000/svg">
<g clip-path="url(#clip0_71_82908)">
<path d="M46.5348 17.98H31.0447C27.7472 17.9826 24.5856 19.2944 22.2548 21.6271C19.924 23.9598 18.6147 27.1224 18.6147 30.42V45.91C18.6174 49.2058 19.9278 52.3659 22.2583 54.6964C24.5888 57.0269 27.7489 58.3373 31.0447 58.34H46.5348C49.8262 58.332 52.9801 57.0189 55.3047 54.6887C57.6293 52.3585 58.9348 49.2014 58.9348 45.91V30.42C58.9374 27.1268 57.6331 23.9671 55.3082 21.6348C52.9833 19.3024 49.8279 17.9879 46.5348 17.98ZM55.0948 44.42C55.0948 47.0721 54.0412 49.6157 52.1658 51.491C50.2905 53.3664 47.7469 54.42 45.0948 54.42H32.5348C31.2173 54.4266 29.9116 54.1728 28.6926 53.6732C27.4735 53.1736 26.3652 52.438 25.4313 51.5088C24.4974 50.5795 23.7564 49.4749 23.2507 48.2584C22.745 47.0419 22.4847 45.7374 22.4847 44.42V31.9C22.4847 30.5825 22.745 29.2781 23.2507 28.0616C23.7564 26.845 24.4974 25.7404 25.4313 24.8112C26.3652 23.8819 27.4735 23.1464 28.6926 22.6468C29.9116 22.1472 31.2173 21.8934 32.5348 21.9H45.0547C46.368 21.9 47.6683 22.1586 48.8816 22.6612C50.0948 23.1637 51.1972 23.9003 52.1258 24.8289C53.0544 25.7575 53.791 26.8599 54.2935 28.0731C54.7961 29.2864 55.0547 30.5868 55.0547 31.9L55.0948 44.42Z" fill="#3B276B"/>
<path d="M39.3348 27.6001C37.2311 27.5942 35.173 28.2126 33.4209 29.377C31.6689 30.5414 30.3018 32.1995 29.4926 34.1414C28.6834 36.0832 28.4687 38.2215 28.8754 40.2855C29.2822 42.3495 30.2922 44.2464 31.7776 45.736C33.2631 47.2256 35.1571 48.241 37.2199 48.6536C39.2828 49.0662 41.4216 48.8575 43.3658 48.0538C45.3099 47.2501 46.9719 45.8877 48.1412 44.139C49.3106 42.3902 49.9348 40.3338 49.9348 38.2301C49.9348 35.4161 48.819 32.7168 46.832 30.7242C44.8449 28.7315 42.1488 27.6081 39.3348 27.6001ZM39.3348 44.6001C38.0686 44.6021 36.8302 44.2284 35.7764 43.5264C34.7227 42.8244 33.9008 41.8255 33.4148 40.6563C32.9289 39.487 32.8007 38.1998 33.0466 36.9577C33.2924 35.7156 33.9011 34.5743 34.7958 33.6782C35.6905 32.7821 36.8308 32.1716 38.0725 31.9239C39.3143 31.6761 40.6016 31.8023 41.7717 32.2864C42.9417 32.7705 43.9418 33.5908 44.6455 34.6435C45.3492 35.6961 45.7248 36.9339 45.7248 38.2001C45.7288 39.0423 45.5665 39.8769 45.2472 40.6562C44.928 41.4355 44.4581 42.1441 43.8645 42.7415C43.2708 43.3388 42.5652 43.8131 41.7879 44.1372C41.0106 44.4613 40.1769 44.6288 39.3348 44.6301V44.6001Z" fill="#3B276B"/>
<path d="M49.2249 24.73C48.6885 24.728 48.1635 24.8853 47.7166 25.1818C47.2696 25.4784 46.9207 25.901 46.7141 26.396C46.5074 26.891 46.4523 27.4362 46.5557 27.9625C46.6592 28.4889 46.9165 28.9727 47.2951 29.3527C47.6737 29.7327 48.1565 29.9918 48.6825 30.0972C49.2085 30.2026 49.7539 30.1495 50.2496 29.9447C50.7454 29.7398 51.1693 29.3925 51.4675 28.9466C51.7657 28.5008 51.9249 27.9764 51.9249 27.44C51.9262 27.0846 51.8573 26.7324 51.7222 26.4037C51.5871 26.0749 51.3885 25.7761 51.1376 25.5243C50.8868 25.2726 50.5887 25.0728 50.2605 24.9365C49.9322 24.8002 49.5803 24.73 49.2249 24.73Z" fill="#3B276B"/>
<path d="M64.8148 61.8498C63.7648 62.1598 63.1848 63.3298 62.6848 64.2298C62.1848 65.1298 61.3647 66.0098 61.3647 66.9698C61.3667 67.0455 61.3858 67.1197 61.4206 67.1869C61.4554 67.2542 61.505 67.3126 61.5656 67.3578C61.6263 67.4031 61.6964 67.434 61.7708 67.4482C61.8451 67.4624 61.9217 67.4595 61.9948 67.4398C62.9148 67.1798 63.6148 66.0998 64.2848 65.4398C64.9548 64.7798 66.0148 63.8398 66.0348 62.7498C66.024 62.6063 65.9823 62.4668 65.9127 62.3408C65.843 62.2149 65.747 62.1054 65.6312 62.02C65.5154 61.9345 65.3825 61.8751 65.2416 61.8457C65.1007 61.8164 64.9551 61.8178 64.8148 61.8498Z" fill="#3B276B"/>
<path d="M76.025 40.84C80.575 22.5 61.625 3.95002 44.375 0.690019C34.9039 -1.19059 25.0724 0.661773 16.935 5.86002C9.99498 10.38 2.93498 18.42 2.02498 26.91C2.00487 27.0762 2.04767 27.2438 2.14497 27.38C-3.32503 41.38 2.63498 59.06 14.625 67.96C26.615 76.86 46.065 79.88 58.715 70.66C58.9497 70.5208 59.1195 70.294 59.187 70.0296C59.2545 69.7652 59.2142 69.4847 59.075 69.25C58.9358 69.0153 58.709 68.8455 58.4445 68.778C58.1801 68.7105 57.8997 68.7508 57.665 68.89L56.295 69.52C56.1637 69.3044 55.9556 69.1463 55.7127 69.0777C55.4697 69.0091 55.2097 69.0349 54.985 69.15C46.565 73.15 34.875 71.15 26.555 68.15C26.3516 68.0991 26.1368 68.1224 25.9491 68.2158C25.7614 68.3092 25.6133 68.4665 25.5313 68.6594C25.4493 68.8524 25.4389 69.0682 25.5019 69.2682C25.5649 69.4681 25.6972 69.639 25.875 69.75C30.3099 71.9061 35.131 73.1538 40.055 73.42C42.1198 73.5253 44.1898 73.4651 46.245 73.24C43.0275 74.084 39.6888 74.3681 36.375 74.08C29.4619 73.3597 22.8485 70.8809 17.165 66.88C10.295 62.3 5.60499 56.7 3.38499 48.7C1.38765 41.8069 1.42235 34.4838 3.48497 27.61C3.58341 27.5497 3.66308 27.4631 3.71498 27.36C4.09498 26.66 4.45498 25.97 4.81498 25.28C2.70338 30.7532 2.08895 36.6904 3.03499 42.48C4.82499 53.36 10.955 60.56 20.035 66.48C21.115 67.19 22.205 65.36 21.035 64.75C13.035 60.51 6.65497 50.83 5.30498 42C3.81498 32.24 7.36497 23.08 13.175 15.31C13.675 14.64 12.625 13.92 12.055 14.45C11.1076 15.3419 10.2222 16.2975 9.40498 17.31C10.7415 15.278 12.2865 13.3911 14.015 11.68C13.605 12.37 14.265 13.41 15.085 12.88C17.195 11.52 19.235 10.09 21.425 8.88002C22.985 8.01002 24.645 7.30002 26.245 6.50002C26.5422 6.58586 26.8577 6.58586 27.155 6.50002C38.765 3.55002 50.335 4.82002 59.395 13.31C59.4628 13.3791 59.5455 13.432 59.6367 13.4645C59.728 13.497 59.8254 13.5084 59.9217 13.4979C60.018 13.4873 60.1106 13.455 60.1926 13.4034C60.2746 13.3518 60.3438 13.2822 60.395 13.2C60.3673 13.3088 60.365 13.4225 60.3884 13.5323C60.4118 13.6421 60.4603 13.745 60.5299 13.8331C60.5996 13.9211 60.6886 13.9919 60.7901 14.0399C60.8916 14.088 61.0027 14.112 61.115 14.11C61.3002 14.0887 61.4712 13.9999 61.5953 13.8607C61.7194 13.7215 61.7879 13.5415 61.7879 13.355C61.7879 13.1685 61.7194 12.9885 61.5953 12.8493C61.4712 12.7101 61.3002 12.6214 61.115 12.6C60.9994 12.5966 60.8848 12.6222 60.7817 12.6747C60.6786 12.7271 60.5903 12.8046 60.525 12.9C60.5341 12.8055 60.5228 12.7101 60.4917 12.6204C60.4607 12.5306 60.4106 12.4486 60.345 12.38C57.2123 9.12177 53.4764 6.50324 49.345 4.67002C61.555 9.10002 71.735 20.1 73.205 32.74C72.2718 28.622 70.5501 24.7236 68.135 21.26C68.021 21.0624 67.8331 20.9182 67.6127 20.8592C67.3924 20.8001 67.1576 20.831 66.96 20.945C66.7624 21.0591 66.6182 21.2469 66.5591 21.4673C66.5001 21.6876 66.5309 21.9224 66.645 22.12C69.8429 28.1024 71.577 34.7577 71.705 41.54C71.935 48.67 69.165 54.74 65.375 60.62C64.995 61.21 65.885 61.94 66.375 61.45C66.494 61.5168 66.6314 61.5432 66.7667 61.5252C66.9019 61.5071 67.0277 61.4457 67.125 61.35C72.595 56.25 76.595 48.6 76.055 40.96C76.051 40.9188 76.0408 40.8783 76.025 40.84Z" fill="#3B276B"/>
<path d="M22.9346 67.3902C22.8862 67.518 22.8644 67.6543 22.8707 67.7908C22.877 67.9272 22.9112 68.061 22.9711 68.1837C23.0311 68.3065 23.1156 68.4156 23.2194 68.5045C23.3232 68.5933 23.4441 68.6599 23.5746 68.7002C23.9658 68.853 24.3711 68.9669 24.7846 69.0402C25.5246 69.1302 25.7846 68.1202 25.3646 67.6602C25.0585 67.3787 24.7233 67.1307 24.3646 66.9202C24.2419 66.8476 24.1051 66.8021 23.9634 66.7866C23.8217 66.7712 23.6784 66.7863 23.543 66.8308C23.4075 66.8753 23.2832 66.9482 23.1783 67.0447C23.0734 67.1412 22.9903 67.259 22.9346 67.3902Z" fill="#3B276B"/>
</g>
<defs>
<clipPath id="clip0_71_82908">
<rect width="76.59" height="76.25" fill="white" transform="translate(0.114746)"/>
</clipPath>
</defs>
</svg>
