<svg width="78" height="77" viewBox="0 0 78 77" fill="none" xmlns="http://www.w3.org/2000/svg">
<g clip-path="url(#clip0_71_82903)">
<path d="M22.8248 54.8199H30.5048V30.0999H22.8248V54.8199ZM26.6648 17.8199C26.0277 17.8165 25.3972 17.9497 24.8159 18.2104C24.2346 18.4712 23.7158 18.8535 23.2947 19.3315C22.8735 19.8096 22.5596 20.3723 22.3742 20.9819C22.1888 21.5915 22.1361 22.2337 22.2197 22.8653C22.3034 23.4969 22.5214 24.1033 22.8591 24.6436C23.1967 25.1839 23.6463 25.6456 24.1774 25.9975C24.7085 26.3495 25.3088 26.5836 25.938 26.684C26.5671 26.7845 27.2105 26.749 27.8248 26.5799C28.5739 26.3857 29.2581 25.9966 29.8079 25.452C30.3577 24.9075 30.7534 24.227 30.9548 23.4799C31.1398 22.8176 31.1692 22.1215 31.0406 21.446C30.9121 20.7705 30.629 20.1338 30.2137 19.5858C29.7983 19.0378 29.2619 18.5933 28.6462 18.2869C28.0306 17.9806 27.3525 17.8207 26.6648 17.8199ZM50.0648 29.4899C48.6046 29.437 47.1573 29.781 45.8771 30.4854C44.5969 31.1898 43.5317 32.2281 42.7948 33.4899H42.6948V30.0999H35.3248V54.8199H43.0048V42.5999C43.0048 39.3699 43.6148 36.2499 47.6148 36.2499C51.6148 36.2499 51.6148 39.9399 51.6148 42.7999V54.7999H59.2948V41.2699C59.2848 34.6099 57.8448 29.4899 50.0648 29.4899Z" fill="#3B276B"/>
<path d="M65.2347 61.8498C64.1847 62.1598 63.6047 63.3298 63.1047 64.2298C62.6047 65.1298 61.7847 66.0098 61.7847 66.9698C61.785 67.0451 61.8028 67.1192 61.8364 67.1865C61.87 67.2538 61.9187 67.3124 61.9787 67.3579C62.0386 67.4033 62.1082 67.4344 62.1821 67.4486C62.256 67.4628 62.3322 67.4598 62.4047 67.4398C63.3347 67.1798 64.0347 66.0998 64.7047 65.4398C65.3747 64.7798 66.4347 63.8398 66.4547 62.7498C66.4439 62.6063 66.4023 62.4668 66.3326 62.3408C66.263 62.2149 66.167 62.1054 66.0511 62.02C65.9353 61.9345 65.8024 61.8751 65.6615 61.8457C65.5206 61.8164 65.375 61.8178 65.2347 61.8498Z" fill="#3B276B"/>
<path d="M76.4352 40.8399C80.9852 22.4999 62.0251 3.94992 44.7851 0.689922C35.3204 -1.18532 25.4972 0.66684 17.3652 5.85992C10.4252 10.3799 3.36515 18.4199 2.45515 26.9099C2.43504 27.0761 2.47785 27.2437 2.57515 27.3799C-2.89485 41.3799 3.06516 59.0599 15.0552 67.9599C27.0452 76.8599 46.4951 79.8799 59.1351 70.6599C59.3699 70.5273 59.5423 70.3069 59.6145 70.0472C59.6867 69.7874 59.6528 69.5096 59.5202 69.2749C59.3875 69.0402 59.1671 68.8678 58.9074 68.7956C58.6477 68.7234 58.3699 68.7573 58.1351 68.8899L56.7651 69.5199C56.6338 69.3043 56.4258 69.1462 56.1828 69.0776C55.9398 69.009 55.6799 69.0348 55.4552 69.1499C47.0351 73.1499 35.3452 71.1499 27.0252 68.1499C26.8218 68.099 26.607 68.1223 26.4193 68.2157C26.2316 68.3091 26.0834 68.4664 26.0014 68.6593C25.9195 68.8523 25.909 69.0681 25.972 69.2681C26.035 69.468 26.1673 69.6389 26.3451 69.7499C30.78 71.906 35.6012 73.1537 40.5252 73.4199C42.59 73.525 44.6599 73.4648 46.7152 73.2399C43.4977 74.0839 40.159 74.368 36.8451 74.0799C29.9321 73.3596 23.3186 70.8808 17.6351 66.8799C10.7651 62.2999 6.07515 56.6999 3.85515 48.6999C1.85781 41.8068 1.89254 34.4838 3.95515 27.6099C4.05118 27.5467 4.13019 27.4609 4.18516 27.3599L5.28514 25.2799C3.17353 30.7531 2.5591 36.6903 3.50514 42.4799C5.29514 53.3599 11.4251 60.5599 20.5051 66.4799C21.5851 67.1899 22.6751 65.3599 21.5051 64.7499C13.5051 60.5099 7.12516 50.8299 5.77516 41.9999C4.23516 32.2399 7.77516 23.0999 13.5852 15.3099C14.0852 14.6399 13.0352 13.9199 12.4652 14.4499C11.5178 15.3418 10.6324 16.2974 9.81514 17.3099C11.1485 15.2756 12.6938 13.3884 14.4252 11.6799C14.0152 12.3699 14.6652 13.4099 15.4952 12.8799C17.6052 11.5199 19.6452 10.0899 21.8352 8.87992C23.3952 8.00992 25.0552 7.29992 26.6552 6.49992C26.9524 6.58576 27.2679 6.58576 27.5651 6.49992C39.1751 3.54992 50.7452 4.81992 59.8052 13.3099C59.873 13.379 59.9557 13.4319 60.0469 13.4644C60.1382 13.4969 60.2356 13.5084 60.3319 13.4978C60.4281 13.4872 60.5208 13.4549 60.6028 13.4033C60.6847 13.3517 60.754 13.2821 60.8052 13.1999C60.7756 13.308 60.7716 13.4216 60.7936 13.5315C60.8156 13.6414 60.863 13.7446 60.9319 13.833C61.0009 13.9214 61.0895 13.9924 61.1907 14.0405C61.292 14.0886 61.4031 14.1123 61.5151 14.1099C61.7004 14.0886 61.8714 13.9998 61.9955 13.8606C62.1196 13.7214 62.1881 13.5414 62.1881 13.3549C62.1881 13.1684 62.1196 12.9884 61.9955 12.8492C61.8714 12.71 61.7004 12.6213 61.5151 12.5999C61.4012 12.5981 61.2886 12.6246 61.1874 12.677C61.0862 12.7293 60.9995 12.8059 60.9352 12.8999C60.9443 12.8054 60.933 12.71 60.9019 12.6203C60.8709 12.5305 60.8208 12.4485 60.7551 12.3799C57.6207 9.1238 53.8852 6.50558 49.7551 4.66992C61.9651 9.09992 72.1452 20.0999 73.6152 32.7399C72.682 28.6219 70.9603 24.7235 68.5452 21.2599C68.4887 21.1621 68.4135 21.0763 68.3239 21.0076C68.2343 20.9388 68.132 20.8883 68.0229 20.8591C67.9138 20.8298 67.8 20.8223 67.688 20.8371C67.576 20.8518 67.468 20.8885 67.3702 20.9449C67.2723 21.0014 67.1866 21.0766 67.1178 21.1662C67.049 21.2558 66.9986 21.3581 66.9693 21.4672C66.9401 21.5763 66.9326 21.6901 66.9473 21.8021C66.962 21.9141 66.9987 22.0221 67.0552 22.1199C70.2531 28.1023 71.9872 34.7576 72.1152 41.5399C72.3452 48.6699 69.5751 54.7399 65.7851 60.6199C65.4051 61.2099 66.2951 61.9399 66.7851 61.4499C66.9041 61.5167 67.0416 61.5431 67.1768 61.5251C67.3121 61.507 67.4378 61.4456 67.5351 61.3499C73.0051 56.2499 77.0052 48.5999 76.4652 40.9599C76.4611 40.9187 76.451 40.8782 76.4352 40.8399Z" fill="#3B276B"/>
<path d="M23.3047 67.3902C23.2563 67.518 23.2345 67.6543 23.2408 67.7908C23.2471 67.9272 23.2813 68.061 23.3412 68.1837C23.4012 68.3065 23.4857 68.4156 23.5895 68.5045C23.6933 68.5933 23.8142 68.6599 23.9447 68.7002C24.3359 68.853 24.7412 68.9669 25.1547 69.0402C25.8947 69.1302 26.1547 68.1202 25.7347 67.6602C25.4268 67.3809 25.0918 67.133 24.7347 66.9202C24.612 66.8476 24.4753 66.8021 24.3335 66.7866C24.1918 66.7712 24.0485 66.7863 23.913 66.8308C23.7776 66.8753 23.6533 66.9482 23.5484 67.0447C23.4434 67.1412 23.3604 67.259 23.3047 67.3902Z" fill="#3B276B"/>
</g>
<defs>
<clipPath id="clip0_71_82903">
<rect width="76.59" height="76.25" fill="white" transform="translate(0.524902)"/>
</clipPath>
</defs>
</svg>
