<svg width="77" height="77" viewBox="0 0 77 77" fill="none" xmlns="http://www.w3.org/2000/svg">
<g clip-path="url(#clip0_71_82920)">
<path d="M52.5847 23.6798C52.2834 23.6801 51.986 23.7484 51.7147 23.8798L19.6147 36.2598C17.4247 37.1498 17.4447 38.3698 19.2247 38.8998L27.4747 41.4798H27.5247L30.3447 50.7898C30.7347 51.7898 30.5447 52.2298 31.6247 52.2298C31.9468 52.2215 32.2631 52.1429 32.5516 51.9996C32.84 51.8562 33.0937 51.6515 33.2947 51.3998L37.2147 47.5798V47.5298L45.5047 53.6498C45.9629 53.934 46.4961 54.0734 47.0347 54.0498C47.7947 53.9898 48.3447 53.4098 48.5947 52.2298L54.1147 26.4798C54.5747 24.6198 53.7147 23.6198 52.5847 23.6798Z" stroke="#3B276B" stroke-width="4" stroke-miterlimit="10"/>
<path d="M64.9949 61.85C63.9449 62.17 63.3649 63.3301 62.8649 64.2401C62.3649 65.1501 61.5449 66.02 61.5449 66.98C61.5469 67.0557 61.5659 67.1299 61.6007 67.1971C61.6355 67.2644 61.6851 67.3228 61.7458 67.368C61.8064 67.4133 61.8766 67.4442 61.9509 67.4584C62.0253 67.4726 62.1019 67.4698 62.1749 67.45C63.0949 67.19 63.7949 66.1 64.4649 65.45C65.1349 64.8 66.1949 63.8501 66.2149 62.7701C66.2069 62.6248 66.1673 62.483 66.0988 62.3547C66.0304 62.2263 65.9347 62.1144 65.8185 62.0268C65.7024 61.9392 65.5685 61.878 65.4262 61.8474C65.284 61.8169 65.1368 61.8178 64.9949 61.85Z" fill="#3B276B"/>
<path d="M76.2052 40.8501C80.7552 22.5001 61.8052 3.96007 44.5552 0.690068C35.0827 -1.18232 25.2531 0.673295 17.1152 5.87009C10.1752 10.3901 3.11515 18.4201 2.20515 26.9201C2.18601 27.0862 2.22873 27.2535 2.32515 27.3901C-3.14485 41.3901 2.81516 59.0601 14.8052 67.9601C26.7952 76.8601 46.2452 79.8901 58.8952 70.6601C59.1285 70.5208 59.2971 70.2946 59.3636 70.0311C59.4302 69.7676 59.3894 69.4885 59.2502 69.2551C59.1812 69.1395 59.0902 69.0387 58.9823 68.9583C58.8743 68.8779 58.7516 68.8196 58.6212 68.7866C58.3577 68.72 58.0786 68.7609 57.8452 68.9001L56.4751 69.5301C56.3438 69.3144 56.1358 69.1564 55.8928 69.0878C55.6498 69.0191 55.3899 69.045 55.1651 69.1601C46.7451 73.1601 35.0552 71.1601 26.7352 68.1601C25.7952 67.8301 25.1552 69.3301 26.0552 69.7601C30.4925 71.936 35.3209 73.2009 40.2552 73.4801C42.3201 73.5801 44.3896 73.52 46.4451 73.3001C43.2262 74.1356 39.8884 74.4163 36.5751 74.1301C29.664 73.4084 23.0517 70.9335 17.3652 66.9401C10.4952 62.3501 5.80516 56.7601 3.58516 48.7601C1.58782 41.867 1.62255 34.5439 3.68516 27.6701C3.78189 27.6035 3.86083 27.5142 3.91514 27.4101C4.29514 26.7101 4.65515 26.0201 5.01515 25.3401C2.91048 30.794 2.29609 36.71 3.23515 42.4801C5.02515 53.3701 11.1552 60.5701 20.2352 66.4801C21.3152 67.1901 22.4052 65.3701 21.2352 64.7601C13.2352 60.5101 6.85517 50.8401 5.50517 42.0001C4.01517 32.2401 7.56517 23.0901 13.3752 15.3101C13.8752 14.6501 12.8252 13.9301 12.2552 14.4601C11.3054 15.3496 10.4198 16.3053 9.60515 17.3201C10.9416 15.288 12.4867 13.4011 14.2152 11.6901C13.8052 12.3701 14.4652 13.4101 15.2852 12.8801C17.3952 11.5301 19.4352 10.0901 21.6252 8.88007C23.1852 8.00007 24.8451 7.30009 26.4451 6.49009C26.7416 6.58114 27.0586 6.58114 27.3551 6.49009C38.9651 3.54009 50.5352 4.82006 59.5952 13.3101C59.6637 13.3787 59.747 13.4309 59.8386 13.4627C59.9303 13.4944 60.028 13.5049 60.1243 13.4934C60.2207 13.4818 60.3131 13.4485 60.3947 13.3959C60.4763 13.3434 60.5448 13.273 60.5952 13.1901C60.5656 13.2995 60.562 13.4144 60.5845 13.5255C60.6071 13.6366 60.6552 13.7409 60.7251 13.8301C60.7949 13.9194 60.8847 13.9912 60.9871 14.0398C61.0895 14.0884 61.2018 14.1124 61.3152 14.1101C61.5004 14.0887 61.6714 14 61.7955 13.8608C61.9195 13.7216 61.9881 13.5416 61.9881 13.3551C61.9881 13.1686 61.9195 12.9886 61.7955 12.8494C61.6714 12.7102 61.5004 12.6214 61.3152 12.6001C61.2003 12.5946 61.0859 12.6183 60.9828 12.669C60.8796 12.7198 60.7909 12.7958 60.7251 12.8901C60.7356 12.797 60.7249 12.7027 60.6937 12.6144C60.6625 12.5261 60.6117 12.446 60.5451 12.3801C57.4156 9.1157 53.6791 6.49336 49.5451 4.66007C61.7851 9.15007 71.9652 20.1101 73.4352 32.7601C72.5039 28.6414 70.7821 24.7426 68.3652 21.2801C68.2511 21.0825 68.0633 20.9383 67.8429 20.8792C67.6226 20.8201 67.3878 20.851 67.1902 20.9651C66.9926 21.0791 66.8484 21.267 66.7893 21.4873C66.7302 21.7077 66.7611 21.9425 66.8752 22.1401C70.0731 28.1225 71.8072 34.7778 71.9352 41.5601C72.1652 48.6801 69.3951 54.7501 65.6051 60.6301C65.2252 61.2301 66.1152 61.9601 66.6051 61.4601C66.7241 61.5269 66.8616 61.5533 66.9968 61.5352C67.1321 61.5172 67.2578 61.4557 67.3551 61.3601C72.8251 56.2601 76.8252 48.6201 76.2852 40.9701C76.2651 40.926 76.2381 40.8855 76.2052 40.8501Z" fill="#3B276B"/>
<path d="M23.1148 67.3901C23.0663 67.5178 23.0446 67.6541 23.0509 67.7906C23.0571 67.9271 23.0913 68.0608 23.1513 68.1836C23.2113 68.3063 23.2958 68.4155 23.3996 68.5043C23.5033 68.5931 23.6242 68.6598 23.7548 68.7001C24.1429 68.8619 24.5492 68.9761 24.9648 69.0401C25.7048 69.1301 25.9648 68.1201 25.5448 67.6701C25.2387 67.3886 24.9034 67.1405 24.5448 66.9301C24.4227 66.8572 24.2866 66.8111 24.1453 66.795C24.0041 66.7789 23.8611 66.7931 23.7257 66.8366C23.5904 66.8801 23.4659 66.952 23.3606 67.0475C23.2552 67.1429 23.1714 67.2597 23.1148 67.3901Z" fill="#3B276B"/>
</g>
<defs>
<clipPath id="clip0_71_82920">
<rect width="76.59" height="76.25" fill="white" transform="translate(0.294922)"/>
</clipPath>
</defs>
</svg>
