<svg width="78" height="77" viewBox="0 0 78 77" fill="none" xmlns="http://www.w3.org/2000/svg">
<path d="M51.01 18.6489H57.4758L43.3499 34.794L59.9679 56.7637H46.9561L36.7648 43.4392L25.1037 56.7637H18.6339L33.743 39.4948L17.8013 18.6489H31.1434L40.3554 30.8281L51.01 18.6489ZM48.7407 52.8936H52.3235L29.1966 22.3158H25.3519L48.7407 52.8936Z" fill="#3B276B"/>
<g clip-path="url(#clip0_71_82925)">
<path d="M65.575 61.85C64.575 62.17 63.945 63.3301 63.455 64.2401C62.965 65.1501 62.135 66.02 62.125 66.98C62.1269 67.0557 62.146 67.1299 62.1808 67.1971C62.2156 67.2644 62.2652 67.3228 62.3259 67.368C62.3865 67.4133 62.4567 67.4442 62.531 67.4584C62.6053 67.4726 62.6819 67.4698 62.755 67.45C63.675 67.19 64.375 66.1 65.045 65.45C65.715 64.8 66.775 63.8501 66.795 62.7701C66.787 62.6248 66.7473 62.483 66.6789 62.3547C66.6104 62.2263 66.5148 62.1144 66.3986 62.0268C66.2825 61.9392 66.1486 61.878 66.0063 61.8474C65.8641 61.8169 65.7169 61.8178 65.575 61.85Z" fill="#3B276B"/>
<path d="M76.7948 40.85C81.3348 22.5 62.3848 3.95998 45.1348 0.689981C35.6687 -1.17705 25.8473 0.678365 17.7148 5.87C10.7748 10.39 3.71476 18.42 2.80476 26.92C2.78562 27.0861 2.82834 27.2534 2.92476 27.39C-2.54524 41.39 3.41476 59.06 15.4048 67.96C27.3948 76.86 46.8448 79.89 59.4948 70.66C59.6103 70.5943 59.7118 70.5065 59.7935 70.4016C59.8751 70.2968 59.9353 70.1768 59.9706 70.0487C60.0059 69.9205 60.0156 69.7867 59.9991 69.6548C59.9827 69.5229 59.9404 69.3955 59.8748 69.28C59.8091 69.1644 59.7213 69.0629 59.6164 68.9813C59.5116 68.8997 59.3916 68.8395 59.2635 68.8042C59.1353 68.7689 59.0015 68.7592 58.8696 68.7756C58.7377 68.7921 58.6103 68.8343 58.4948 68.9L57.1248 69.53C56.9935 69.3143 56.7854 69.1563 56.5424 69.0877C56.2994 69.0191 56.0395 69.0449 55.8148 69.16C47.4048 73.16 35.7148 71.16 27.3848 68.16C26.4548 67.83 25.8048 69.33 26.7048 69.76C31.1237 71.9282 35.9309 73.1929 40.8448 73.48C42.9063 73.5801 44.9725 73.5199 47.0248 73.3C43.8058 74.1356 40.468 74.4162 37.1548 74.13C30.2299 73.3996 23.6069 70.9108 17.9148 66.9C11.0448 62.31 6.35476 56.72 4.13476 48.72C2.13742 41.8269 2.17214 34.5038 4.23476 27.63C4.33192 27.5609 4.41365 27.4724 4.47476 27.37L5.56476 25.3C3.46682 30.7698 2.86281 36.6995 3.81476 42.48C5.60476 53.37 11.7448 60.57 20.8148 66.48C21.9048 67.19 22.9848 65.37 21.8148 64.76C13.8148 60.51 7.43476 50.84 6.08476 42C4.60476 32.24 8.15476 23.09 13.9548 15.31C14.4548 14.65 13.4048 13.93 12.8348 14.46C11.8882 15.3496 11.006 16.3054 10.1948 17.32C11.5246 15.2858 13.0665 13.3986 14.7948 11.69C14.3848 12.37 15.0448 13.41 15.8648 12.88C17.9748 11.53 20.0148 10.09 22.2048 8.87998C23.7648 7.99998 25.4248 7.3 27.0248 6.49C27.3213 6.58105 27.6383 6.58105 27.9348 6.49C39.5548 3.54 51.1248 4.81998 60.1748 13.31C60.2442 13.3769 60.3276 13.4275 60.419 13.4582C60.5104 13.4888 60.6075 13.4988 60.7032 13.4873C60.799 13.4758 60.8909 13.4432 60.9725 13.3918C61.054 13.3403 61.1231 13.2714 61.1748 13.19C61.1433 13.2987 61.1379 13.4134 61.159 13.5246C61.1801 13.6358 61.2272 13.7405 61.2964 13.8301C61.3655 13.9197 61.4549 13.9918 61.5571 14.0404C61.6593 14.089 61.7716 14.1129 61.8848 14.11C62.07 14.0886 62.241 13.9999 62.3651 13.8607C62.4892 13.7215 62.5577 13.5415 62.5577 13.355C62.5577 13.1685 62.4892 12.9885 62.3651 12.8493C62.241 12.7101 62.07 12.6213 61.8848 12.6C61.7699 12.5945 61.6556 12.6182 61.5524 12.669C61.4492 12.7197 61.3606 12.7957 61.2948 12.89C61.3076 12.7968 61.2979 12.7019 61.2666 12.6131C61.2353 12.5244 61.1833 12.4445 61.1148 12.38C57.9852 9.11561 54.2487 6.49328 50.1148 4.65998C62.3648 9.14998 72.5348 20.11 74.0048 32.76C73.073 28.6349 71.3439 24.7317 68.9148 21.27C68.8007 21.0724 68.6128 20.9282 68.3925 20.8692C68.1721 20.8101 67.9373 20.841 67.7398 20.955C67.5422 21.069 67.398 21.2569 67.3389 21.4772C67.2798 21.6976 67.3107 21.9324 67.4248 22.13C70.6227 28.1124 72.3568 34.7677 72.4848 41.55C72.7148 48.67 69.9448 54.74 66.1648 60.62C65.7748 61.22 66.6648 61.95 67.1648 61.45C67.2853 61.5176 67.4244 61.5444 67.5614 61.5263C67.6984 61.5083 67.8259 61.4465 67.9248 61.35C73.3848 56.25 77.3848 48.61 76.8448 40.96C76.8148 40.92 76.7948 40.89 76.7948 40.85Z" fill="#3B276B"/>
<path d="M23.6548 67.3901C23.6064 67.5178 23.5846 67.6541 23.5909 67.7906C23.5972 67.9271 23.6314 68.0608 23.6913 68.1836C23.7513 68.3063 23.8358 68.4155 23.9396 68.5043C24.0434 68.5931 24.1643 68.6598 24.2948 68.7001C24.6863 68.862 25.096 68.9761 25.5148 69.0401C26.2548 69.1301 26.5148 68.1201 26.0848 67.6701C25.7787 67.3886 25.4435 67.1405 25.0848 66.9301C24.9628 66.8572 24.8266 66.8111 24.6853 66.795C24.5441 66.7789 24.4011 66.7931 24.2657 66.8366C24.1304 66.8801 24.0059 66.952 23.9006 67.0475C23.7952 67.1429 23.7114 67.2597 23.6548 67.3901Z" fill="#3B276B"/>
</g>
<defs>
<clipPath id="clip0_71_82925">
<rect width="76.59" height="76.25" fill="white" transform="translate(0.884766)"/>
</clipPath>
</defs>
</svg>
